<svg width="32" height="32" viewBox="0 0 32 32" fill="none" xmlns="http://www.w3.org/2000/svg">
  <path d="M13.1556 16C13.2197 16.0636 13.2943 16.1358 13.385 16.2233L20.6946 23.2806C21.0919 23.6642 21.103 24.2973 20.7194 24.6946C20.3358 25.0919 19.7027 25.103 19.3054 24.7194L11.996 17.6623C11.9849 17.6516 11.9738 17.6408 11.9626 17.6301C11.7621 17.4366 11.5459 17.2281 11.388 17.0283C11.2043 16.7958 11 16.4556 11 16C11 15.5444 11.2043 15.2042 11.388 14.9717C11.5459 14.7719 11.7621 14.5634 11.9626 14.3699C11.9738 14.3592 11.9849 14.3485 11.9959 14.3378L19.3054 7.28059C19.7027 6.89698 20.3358 6.9081 20.7194 7.30542C21.103 7.70274 21.0919 8.33581 20.6946 8.71941L13.3851 15.7766C13.2944 15.8642 13.2197 15.9364 13.1556 16Z" transform="rotate(180 16 16)"/>
</svg>
