<svg width="24" height="24" viewBox="0 0 24 24" fill="none"
  xmlns="http://www.w3.org/2000/svg">
  <g id="Icon">
    <path id="Vector (Stroke)" fill-rule="evenodd" clip-rule="evenodd" d="M14.1333 12C14.0853 11.9523 14.0292 11.8982 13.9612 11.8325L8.47906 6.53956C8.18107 6.25186 8.17274 5.77706 8.46044 5.47906C8.74815 5.18107 9.22295 5.17274 9.52094 5.46044L15.003 10.7533C15.0113 10.7613 15.0197 10.7694 15.028 10.7774C15.1784 10.9225 15.3405 11.0789 15.459 11.2288C15.5968 11.4031 15.75 11.6583 15.75 12C15.75 12.3417 15.5968 12.5969 15.459 12.7712C15.3405 12.9211 15.1784 13.0775 15.028 13.2226C15.0197 13.2306 15.0113 13.2387 15.0031 13.2467L9.52094 18.5396C9.22295 18.8273 8.74815 18.8189 8.46044 18.5209C8.17274 18.2229 8.18107 17.7481 8.47906 17.4604L13.9612 12.1675C14.0292 12.1019 14.0853 12.0477 14.1333 12Z" />
  </g>
</svg>
